HIERARCHY
ROOT simHips
{
  OFFSET -68.3785 100.059 260.003
  CHANNELS 6 Xposition Yposition Zposition Zrotation Xrotation Yrotation
  JOINT simSpine
  {
    OFFSET -0.000354287 21.3001 -0.0169239
    CHANNELS 3 Zrotation Xrotation Yrotation
    JOINT simLeftArm
    {
      OFFSET 13.5181 21.3012 0
      CHANNELS 3 Zrotation Xrotation Yrotation
      JOINT simLeftForeArm
      {
        OFFSET 24.5783 0 1.00687e-005
        CHANNELS 3 Zrotation Xrotation Yrotation
        JOINT simLeftHand
        {
          OFFSET 24.5783 0 0
          CHANNELS 3 Zrotation Xrotation Yrotation
          End Site
          {
            OFFSET 7.32568 1.52588e-005 0.0169305
          }
        }
      }
    }
    JOINT simHead
    {
      OFFSET 0 27.4458 -0.004888
      CHANNELS 3 Zrotation Xrotation Yrotation
      End Site
      {
        OFFSET 0 0 0
      }
    }
    JOINT simRightArm
    {
      OFFSET -13.5174 21.3012 0
      CHANNELS 3 Zrotation Xrotation Yrotation
      JOINT simRightForeArm
      {
        OFFSET -24.5783 -3.50495e-005 0
        CHANNELS 3 Zrotation Xrotation Yrotation
        JOINT simRightHand
        {
          OFFSET -24.5783 -1.48483e-005 0
          CHANNELS 3 Zrotation Xrotation Yrotation
          End Site
          {
            OFFSET -7.32568 1.52588e-005 0.0169305
          }
        }
      }
    }
  }
  JOINT simRightUpLeg
  {
    OFFSET -8.44614 -9.41038 0.835685
    CHANNELS 3 Zrotation Xrotation Yrotation
    JOINT simRightLeg
    {
      OFFSET 9.38052e-005 -40.9639 0.000210361
      CHANNELS 3 Zrotation Xrotation Yrotation
      JOINT simRightFoot
      {
        OFFSET 0 -40.9639 0
        CHANNELS 3 Zrotation Xrotation Yrotation
        End Site
        {
          OFFSET 0.50614 -9.67405 14.6709
        }
      }
    }
  }
  JOINT simLeftUpLeg
  {
    OFFSET 8.44614 -9.41038 0.835688
    CHANNELS 3 Zrotation Xrotation Yrotation
    JOINT simLeftLeg
    {
      OFFSET 0 -40.9639 0
      CHANNELS 3 Zrotation Xrotation Yrotation
      JOINT simLeftFoot
      {
        OFFSET 0 -40.9639 0
        CHANNELS 3 Zrotation Xrotation Yrotation
        End Site
        {
          OFFSET -0.50614 -9.67405 14.6709
        }
      }
    }
  }
}
MOTION
Frames:	23
Frame Time:	0.0333333
10.0456 100.141 7.12148 0 0 -1.10409e-008 -0 0 1.10409e-008 6.83019e-006 -1.70755e-006 6.83019e-006 -3.49197e-006 -6.83019e-006 -1.16332e-005 -3.33713e-006 0.00287337 -2.17682e-005 -0 0 4.66907e-008 6.83019e-006 -4.26887e-007 3.41509e-006 -2.97197e-006 -4.26887e-007 4.67951e-006 -3.85929e-006 0.00825914 7.46751e-006 0.119562 1.48244 -0.00154218 3.72121e-006 0.525468 -0.000338401 -0.119307 -2.0079 0.00693088 -0.309976 0.895294 0.00326695 -0.000102578 0.802697 0.000795328 0.309594 -1.69161 -0.0150642 
10.0098 100.141 7.16124 0.0498331 0.0101137 -0.0325749 -0.0410237 -0.0226511 0.026474 0.0163609 0.0742645 0.106596 0.07011 -0.0473939 -0.0489571 0.0108911 0.00287336 -0.0759233 0.0312335 0.106171 0.0203425 0.0298359 0.0552353 -0.0033885 0.0180976 -0.014337 0.0189614 0.006342 0.00827033 0.0194455 0.0283964 1.49672 -0.084521 0.127139 0.524385 0.136224 -0.212575 -2.03896 0.00693101 -0.25604 1.01897 -0.0299874 -0.178177 0.681028 0.0727508 0.421477 -1.69161 -0.0150642 
9.97238 100.141 7.20778 0.109766 0.0514884 -0.0590851 -0.0899659 -0.0717879 0.0498343 0.0397724 0.107696 0.217908 0.124136 -0.0603279 -0.0870222 -0.00666872 -0.00401186 -0.180327 0.0896522 0.193418 0.0795405 0.0402521 0.168425 -0.0406732 0.0561801 -0.0211873 0.0569652 0.0395805 -0.00809064 0.0100374 -0.0729387 1.43365 -0.213728 0.256027 0.614119 0.316465 -0.344466 -2.09258 0.00693125 -0.212465 1.20652 -0.0875624 -0.347897 0.481305 0.159461 0.484015 -1.70327 -0.0150643 
9.93771 100.142 7.24723 0.154151 0.0750737 -0.0720137 -0.127165 -0.101422 0.070425 0.0734886 0.22303 0.297158 0.121669 -0.112686 -0.0835198 -0.0535944 -0.0211597 -0.228887 0.123634 0.271601 0.115916 0.0615948 0.252085 -0.0729523 0.0619639 -0.101209 0.0689999 0.0102725 -0.00132806 -0.0437139 -0.140649 1.46129 -0.341697 0.3416 0.556216 0.47336 -0.407513 -2.06598 0.00693113 -0.179395 0.949964 -0.11239 -0.46453 0.743294 0.220258 0.520666 -1.73233 -0.0150645 
9.90459 100.142 7.27907 0.188993 0.106815 -0.0787685 -0.152337 -0.136733 0.0825537 0.102099 0.125122 0.387366 0.0930556 -0.00160106 -0.0895829 -0.0550977 -0.0228502 -0.280787 0.150054 0.381865 0.160614 0.0772255 0.268208 -0.0874247 0.0455557 -0.18625 0.0597244 0.000258405 0.0110469 -0.0212864 -0.185904 1.44596 -0.415422 0.400497 0.561208 0.573609 -0.458054 -2.0846 0.00693121 -0.147213 0.947395 -0.145804 -0.564863 0.718654 0.27206 0.556645 -1.71807 -0.0150644 
9.87404 100.142 7.30532 0.206879 0.110644 -0.0691068 -0.163984 -0.149462 0.0794292 0.111148 0.220684 0.48091 0.0900817 -0.146043 -0.0762966 -0.039821 -0.01787 -0.351775 0.13568 0.493823 0.162044 0.0616905 0.308642 -0.105222 0.0572555 -0.123008 0.0661343 0.0172184 -0.00543998 -0.0561431 -0.202775 1.43832 -0.477853 0.442687 0.582683 0.635618 -0.506779 -2.07224 0.00693116 -0.111986 0.93897 -0.160302 -0.637852 0.773961 0.278717 0.613655 -1.75812 -0.0150647 
9.84279 100.142 7.33811 0.244032 0.120871 -0.0554319 -0.194816 -0.165057 0.0867861 0.115786 0.29095 0.539732 0.133124 -0.128551 -0.074834 -0.0420736 -0.0189992 -0.389308 0.119146 0.557857 0.152942 0.0320109 0.474527 -0.170097 0.0818122 -0.27893 0.1026 -0.0713159 0.0359778 -0.0347513 -0.229537 1.8897 -0.518226 0.468694 0.178808 0.672811 -0.580795 -2.12767 0.0069314 -0.110844 0.938103 -0.217405 -0.672793 0.779578 0.318326 0.570075 -1.76925 -0.0150648 
9.81469 100.142 7.3457 0.248945 0.144926 -0.0536102 -0.192678 -0.190577 0.0853244 0.130676 0.286918 0.648465 0.157841 -0.0685933 -0.128565 -0.0700349 -0.0292633 -0.426222 0.133784 0.62768 0.187243 0.012883 0.427744 -0.164076 0.0385344 -0.155829 0.050394 -0.0231313 0.021174 -0.0239997 -0.223797 1.42949 -0.610577 0.481855 0.573153 0.772119 -0.603974 -2.07153 0.00693115 -0.0794817 0.914499 -0.220451 -0.71562 0.782612 0.325539 0.619884 -1.76354 -0.0150648 
9.78887 100.142 7.37864 0.260949 0.159012 -0.0539233 -0.199232 -0.205345 0.107281 0.158728 0.330877 0.722328 0.131977 -0.0936662 -0.156996 -0.0649051 -0.0279218 -0.469946 0.0942337 0.727163 0.213068 -0.0295518 0.427377 -0.207671 0.0450213 -0.219936 0.0618947 0.00384606 0.0018952 -0.037818 -0.218047 2.35167 -0.610589 0.497195 -0.290656 0.779165 -0.582374 -2.15406 0.00693152 -0.0660939 0.935232 -0.236102 -0.732981 0.755286 0.36758 0.609143 -1.76736 -0.0150648 
9.76321 100.142 7.38297 0.266103 0.175817 -0.0380951 -0.206319 -0.226594 0.133059 0.191842 0.351402 0.738109 0.109916 -0.102051 -0.135041 -0.0847526 -0.0352965 -0.428405 0.103933 0.771448 0.218632 -0.0823121 0.42254 -0.286007 0.077133 -0.222981 0.0935852 0.0568429 -0.0131322 -0.0188304 -0.22484 2.286 -0.661248 0.517681 -0.326393 0.806922 -0.657636 -2.0522 0.00693107 -0.0427026 0.910255 -0.230164 -0.754704 0.76703 0.352525 0.603283 -1.77339 -0.0150648 
9.73883 100.142 7.3811 0.285158 0.174887 0.00198451 -0.227557 -0.223069 0.118022 0.239978 0.35386 0.788731 0.114552 -0.030952 -0.122364 -0.100098 -0.0422496 -0.44636 0.132264 0.822078 0.264935 -0.107693 0.446734 -0.305606 0.0776777 -0.234815 0.0950782 0.0525435 -0.0159887 -0.0368936 -0.229343 1.84731 -0.722299 0.526564 0.182192 0.837908 -0.679042 -2.12167 0.00693138 -0.0347468 0.902389 -0.21721 -0.778209 0.775558 0.298634 0.601232 -1.77651 -0.0150649 
9.71611 100.142 7.36734 0.284999 0.175962 0.0407952 -0.225977 -0.230763 0.107189 0.272009 0.409266 0.831576 0.134976 0.00428511 -0.137221 -0.101436 -0.0392227 -0.485581 0.13847 0.905303 0.262645 -0.150247 0.490459 -0.314924 0.0921141 -0.316036 0.11567 0.0125925 -0.00365993 -0.0581528 -0.212843 1.83083 -0.757597 0.530999 0.168985 0.830835 -0.697794 -2.09283 0.00693125 -0.0115479 0.907188 -0.245327 -0.792209 0.739213 0.286161 0.592968 -1.74518 -0.0150646 
9.69825 100.142 7.36355 0.287717 0.174447 0.0700945 -0.224617 -0.24554 0.111236 0.269614 0.423815 0.859845 0.176919 -0.0646982 -0.188303 -0.0858426 -0.0376189 -0.522771 0.123157 0.998087 0.272975 -0.167569 0.495712 -0.301853 0.0615328 -0.337803 0.0874865 -0.004054 0.00626794 -0.0390684 -0.201848 1.86817 -0.762465 0.528222 0.127166 0.794696 -0.710621 -2.08727 0.00693122 0.00121369 0.90026 -0.235342 -0.79664 0.746017 0.236601 0.582591 -1.74269 -0.0150646 
9.67724 100.142 7.35719 0.29758 0.165298 0.1053 -0.223374 -0.259366 0.114969 0.260133 0.463252 0.82962 0.173919 -0.154734 -0.192619 -0.126277 -0.0504128 -0.548765 0.12944 1.05301 0.272856 -0.200223 0.472681 -0.311222 0.0813937 -0.347721 0.10766 -0.0241445 0.0163494 -0.00726224 -0.195911 1.85198 -0.77802 0.52389 0.142841 0.781189 -0.717522 -2.07606 0.00693117 0.00879853 0.882575 -0.274154 -0.804502 0.784315 0.240961 0.572883 -1.74585 -0.0150646 
9.65936 100.142 7.33474 0.295901 0.140031 0.134398 -0.222301 -0.262308 0.102199 0.248582 0.491994 0.822774 0.149268 -0.187334 -0.190758 -0.146572 -0.0561108 -0.595737 0.126915 1.14794 0.304487 -0.22229 0.553051 -0.288466 0.092041 -0.334773 0.11706 -0.0154095 0.0235134 0.0221315 -0.17729 1.46856 -0.774663 0.513017 0.540726 0.749695 -0.678107 -2.04703 0.00693105 0.0263808 0.916595 -0.3106 -0.811448 0.737988 0.247213 0.568789 -1.72342 -0.0150644 
9.64036 100.141 7.31778 0.305195 0.0922094 0.151445 -0.221253 -0.248589 0.0978916 0.24007 0.518886 0.850046 0.16212 -0.190578 -0.225765 -0.154444 -0.0589149 -0.64541 0.119883 1.21414 0.35631 -0.229401 0.612375 -0.270567 0.092473 -0.420423 0.124234 -0.0336919 0.0240115 0.0193116 -0.17698 1.47163 -0.753803 0.50829 0.618723 0.722373 -0.696542 -2.08264 0.0069312 0.0276821 0.938323 -0.275059 -0.812927 0.774795 0.199878 0.605229 -1.7437 -0.0150646 
9.626 100.141 7.30115 0.307739 0.0537807 0.163316 -0.220076 -0.250795 0.114873 0.225007 0.471256 0.860749 0.134141 -0.172232 -0.24922 -0.139555 -0.0614211 -0.678728 0.112832 1.2293 0.382674 -0.243567 0.633085 -0.308828 0.126662 -0.414674 0.157162 -0.0371498 0.0216462 -0.0124497 -0.164395 1.52285 -0.747206 0.507464 0.578941 0.694529 -0.706986 -2.06482 0.00693112 0.0331852 0.97476 -0.33797 -0.814845 0.765554 0.268726 0.590066 -1.74029 -0.0150646 
9.6094 100.14 7.28007 0.3081 0.0143504 0.179857 -0.218949 -0.246764 0.112423 0.214861 0.465331 0.901089 0.122148 -0.113671 -0.250735 -0.151947 -0.0636037 -0.681273 0.108914 1.25822 0.376005 -0.245283 0.58545 -0.31229 0.125234 -0.392732 0.15405 -0.0211519 0.0178954 -0.00831418 -0.146781 1.54087 -0.728581 0.513512 0.606301 0.655278 -0.763592 -2.08515 0.00693121 0.0514894 1.01047 -0.327007 -0.814951 0.753879 0.239755 0.537683 -1.72838 -0.0150645 
9.5943 100.14 7.25159 0.307502 -0.0317239 0.198234 -0.217777 -0.226845 0.114396 0.207644 0.530171 0.933648 0.106932 -0.0769689 -0.213188 -0.161132 -0.0654366 -0.654697 0.111135 1.23135 0.372985 -0.235787 0.68185 -0.356493 0.11077 -0.412213 0.14143 -0.0170964 0.0142367 -0.0350155 -0.148468 1.56244 -0.689524 0.53275 0.629491 0.605519 -0.735787 -2.08121 0.0069312 0.059092 1.03862 -0.374683 -0.815721 0.757938 0.277543 0.572843 -1.72669 -0.0150645 
9.57821 100.141 7.22407 0.306494 -0.0627143 0.225569 -0.216335 -0.223886 0.103264 0.219017 0.52832 0.971922 0.0539021 -0.119474 -0.183994 -0.177948 -0.066893 -0.669301 0.126541 1.21662 0.362731 -0.231282 0.590178 -0.373229 0.0987822 -0.303352 0.121092 0.0129756 0.0103157 -0.0419816 -0.136941 1.60884 -0.636086 0.538191 0.575102 0.513106 -0.751647 -2.05811 0.0069311 0.0722828 1.05418 -0.395243 -0.81565 0.754567 0.260773 0.520529 -1.71028 -0.0150643 
9.56182 100.142 7.19087 0.305853 -0.121258 0.25074 -0.214663 -0.192428 0.0939567 0.208674 0.547553 1.01819 0.00134964 -0.135152 -0.210587 -0.170513 -0.0679476 -0.671638 0.105584 1.23442 0.352576 -0.246048 0.543053 -0.402183 0.117288 -0.282406 0.1376 0.027088 0.00663233 -0.0291065 -0.125935 1.66776 -0.642874 0.542408 0.546088 0.508408 -0.766378 -2.03487 0.006931 0.0831372 1.06711 -0.410678 -0.815889 0.808623 0.240597 0.554553 -1.7218 -0.0150644 
9.54693 100.144 7.155 0.306017 -0.159916 0.281011 -0.212944 -0.179562 0.0801015 0.20299 0.523666 1.03955 -0.0100352 -0.0869198 -0.208888 -0.161778 -0.0685738 -0.698075 0.11165 1.26226 0.345868 -0.247767 0.574941 -0.428163 0.129437 -0.313961 0.151988 0.026913 0.00439297 -0.0717777 -0.123027 1.68806 -0.634284 0.55281 0.548431 0.466558 -0.777225 -2.03327 0.00693099 0.0915829 1.10455 -0.422568 -0.815904 0.770453 0.209643 0.498936 -1.69909 -0.0150643 
9.53179 100.146 7.11611 0.307823 -0.196109 0.290323 -0.211427 -0.165637 0.0717824 0.210419 0.617437 1.05915 -0.00708823 -0.084405 -0.227521 -0.171039 -0.0687462 -0.708109 0.0946337 1.32593 0.394169 -0.24467 0.645954 -0.420991 0.140426 -0.351827 0.165604 0.0237166 0.00624826 -0.0672276 -0.121927 1.69406 -0.614549 0.559031 0.560438 0.439132 -0.749973 -2.01771 0.00693092 0.0991318 1.11949 -0.467698 -0.817667 0.764348 0.260677 0.537466 -1.67273 -0.0150641 
